<svg width="400" height="400" xmlns="http://www.w3.org/2000/svg">
 <metadata id="metadata8">image/svg+xml</metadata>

 <g>
  <title>Layer 1</title>
  <g stroke="null" transform="matrix(9.060914130980397,0,0,-9.060914130980397,-116.16176489439204,512.0553938470669) " id="g92">
   <path fill="#00dbff" fill-rule="nonzero" d="m49.741319,49.253528c0,-2.466 -1.999,-4.465 -4.465,-4.465c-2.467,0 -4.466,1.999 -4.466,4.465c0,2.466 1.999,4.465 4.466,4.465c2.466,0 4.465,-1.999 4.465,-4.465" id="path94"/>
  </g>
  <g stroke="null" transform="matrix(9.060914130980397,0,0,-9.060914130980397,-116.16176489439204,512.0553938470669) " id="g96">
   <path fill="#00dbff" fill-rule="nonzero" d="m28.80722,43.989929c0,-1.545 -1.253,-2.798 -2.798,-2.798c-1.546,0 -2.799,1.253 -2.799,2.798c0,1.545 1.253,2.798 2.799,2.798c1.545,0 2.798,-1.253 2.798,-2.798" id="path98"/>
  </g>
  <g stroke="null" transform="matrix(9.060914130980397,0,0,-9.060914130980397,-116.16176489439204,512.0553938470669) " id="g100">
   <path fill="#00dbff" fill-rule="nonzero" d="m43.200922,18.759929c0,-1.988 -1.611,-3.599 -3.599,-3.599c-1.988,0 -3.6,1.611 -3.6,3.599c0,1.988 1.612,3.599 3.6,3.599c1.988,0 3.599,-1.611 3.599,-3.599" id="path102"/>
  </g>
  <g stroke="null" transform="matrix(9.060914130980397,0,0,-9.060914130980397,-116.16176489439204,512.0553938470669) " id="g104">
   <path fill="#00dbff" fill-rule="nonzero" d="m49.51032,33.94543c-1.191,0.983 -1.361,2.748 -0.377,3.939c0.984,1.192 2.748,1.361 3.94,0.377c1.191,-0.983 1.36,-2.747 0.376,-3.939c-0.984,-1.192 -2.748,-1.36 -3.939,-0.377" id="path106"/>
  </g>
  <g stroke="null" transform="matrix(9.060914130980397,0,0,-9.060914130980397,-116.16176489439204,512.0553938470669) " id="g108">
   <path fill="#00dbff" fill-rule="nonzero" d="m24.210521,30.788229c0,-2.446 -1.983,-4.429 -4.429,-4.429c-2.447,0 -4.429,1.983 -4.429,4.429c0,2.447 1.982,4.429 4.429,4.429c2.446,0 4.429,-1.982 4.429,-4.429" id="path110"/>
  </g>
  <g stroke="null" transform="matrix(9.060914130980397,0,0,-9.060914130980397,-116.16176489439204,512.0553938470669) " id="g24">
   <path fill="#00dbff" fill-rule="nonzero" d="m43.08752,34.38493c0,-3.87 -3.132,-7.003 -7.003,-7.003c-3.864,0 -7.002,3.133 -7.002,7.003c0,3.864 3.138,7.001 7.002,7.001c3.871,0 7.003,-3.137 7.003,-7.001" id="svg_2"/>
  </g>
 </g>
</svg>
