<?xml version="1.0" encoding="UTF-8" standalone="no"?>
<!-- Created with Keyshape -->
<svg xmlns="http://www.w3.org/2000/svg" xmlns:ks="http://ns.keyshapeapp.com" id="Layer_1" x="0px" y="0px" viewBox="0 0 168.7 41.3" ks:version="1.0" style="white-space: preserve-spaces;">
    <path class="st0" d="M62.4,20.4L62.4,26.9L59,26.9L59,20.3C59,19.3,58.9,18.6,58.6,18.2C58.3,17.8,57.8,17.5,57.2,17.5C56.6,17.5,56,17.7,55.5,18.2C55,18.7,54.8,19.4,54.8,20.3L54.8,26.8L51.5,26.8L51.5,14.8L54.8,14.8L54.8,16.2C55.7,15.2,56.8,14.6,58,14.6C58.8,14.6,59.4,14.8,60.1,15.3C60.7,15.7,61.2,16.3,61.5,16.9C62,16.2,62.6,15.6,63.4,15.2C64.2,14.8,65,14.6,65.8,14.6C67.2,14.6,68.4,15,69.2,15.9C70.1,16.7,70.5,18,70.5,19.5L70.5,26.8L67.1,26.8L67.1,20.2C67.1,18.4,66.4,17.4,65.1,17.4C64.4,17.4,63.9,17.6,63.4,18.1C62.7,18.8,62.4,19.5,62.4,20.4"/>
    <path class="st0" d="M85.3,20.9C85.3,22.6,84.7,24.1,83.5,25.3C82.3,26.5,80.8,27.1,79,27.1C77.2,27.1,75.7,26.5,74.5,25.3C73.3,24.1,72.7,22.6,72.7,20.9C72.7,19.2,73.3,17.7,74.5,16.5C75.7,15.3,77.2,14.7,79,14.7C80.8,14.7,82.3,15.3,83.5,16.5C84.7,17.7,85.3,19.1,85.3,20.9M76,20.9C76,21.9,76.3,22.7,76.8,23.3C77.4,23.9,78.1,24.2,78.9,24.2C79.8,24.2,80.5,23.9,81,23.3C81.6,22.7,81.8,21.9,81.8,20.9C81.8,19.9,81.5,19.1,81,18.5C80.4,17.9,79.7,17.6,78.9,17.6C78,17.6,77.3,17.9,76.8,18.5C76.3,19.1,76,19.9,76,20.9"/>
    <path class="st0" d="M94.7,14.7C96.2,14.7,97.4,15.3,98.5,16.4C99.6,17.5,100.1,19,100.1,20.8C100.1,22.6,99.5,24.1,98.4,25.3C97.3,26.5,96,27.1,94.6,27.1C93.2,27.1,92,26.5,91.1,25.3L91.1,26.9L87.8,26.9L87.8,10.3L91.1,10.3L91.1,16.2C92.1,15.2,93.3,14.7,94.7,14.7M91.1,20.9C91.1,21.9,91.4,22.7,91.9,23.3C92.4,23.9,93.1,24.2,93.9,24.2C94.7,24.2,95.3,23.9,95.9,23.3C96.5,22.7,96.8,21.9,96.8,20.9C96.8,19.9,96.5,19.1,96,18.5C95.4,17.8,94.8,17.5,94,17.5C93.2,17.5,92.5,17.8,92,18.5C91.4,19.1,91.1,19.9,91.1,20.9"/>
    <path class="st0" d="M102.9,13.4C102.5,13,102.3,12.6,102.3,12C102.3,11.5,102.5,11,102.9,10.6C103.3,10.2,103.7,10,104.3,10C104.8,10,105.3,10.2,105.7,10.6C106.1,11,106.3,11.4,106.3,12C106.3,12.6,106.1,13,105.7,13.4C105.3,13.8,104.9,14,104.3,14C103.8,13.9,103.3,13.7,102.9,13.4M106,26.9L102.7,26.9L102.7,14.9L106,14.9Z"/>
    <rect class="st0" width="3.3" height="16.6" transform="translate(0,0) translate(109.2,10.3)"/>
    <path class="st0" d="M126.1,25.1C124.7,26.4,123.2,27,121.3,27C119.5,27,118,26.4,116.8,25.3C115.6,24.2,115,22.7,115,20.8C115,18.9,115.6,17.4,116.8,16.3C118,15.2,119.4,14.6,121.1,14.6C122.8,14.6,124.2,15.1,125.3,16.1C126.5,17.1,127,18.5,127,20.2L127,22L118.3,22C118.4,22.7,118.7,23.2,119.3,23.6C119.9,24,120.5,24.2,121.3,24.2C122.5,24.2,123.4,23.8,124.2,23ZM122.9,18C122.4,17.6,121.9,17.4,121.2,17.4C120.5,17.4,119.9,17.6,119.4,18C118.8,18.4,118.5,18.9,118.4,19.6L123.7,19.6C123.6,19,123.3,18.4,122.9,18"/>
    <path class="st0" d="M146.6,22L137.3,22C137.4,22.9,137.8,23.6,138.5,24.1C139.2,24.6,140.1,24.9,141,24.9C142.5,24.9,143.6,24.4,144.4,23.5L145.8,25.1C144.5,26.4,142.9,27.1,140.8,27.1C139.1,27.1,137.7,26.5,136.6,25.4C135.4,24.3,134.8,22.8,134.8,20.9C134.8,19,135.4,17.5,136.6,16.5C137.8,15.4,139.2,14.8,140.8,14.8C142.4,14.8,143.8,15.3,144.9,16.3C146,17.3,146.6,18.6,146.6,20.3L146.6,22ZM137.3,20.1L144.1,20.1C144.1,19.1,143.8,18.3,143.2,17.8C142.6,17.3,141.8,17,140.9,17C140,17,139.2,17.3,138.4,17.8C137.7,18.4,137.3,19.1,137.3,20.1"/>
    <path class="st0" d="M155.6,17.4C154.4,17.4,153.4,17.8,152.8,18.6C152.2,19.4,151.9,20.5,151.9,21.8L151.9,26.9L149.4,26.9L149.4,15L151.9,15L151.9,17.4C152.3,16.7,152.8,16,153.5,15.6C154.2,15.1,154.9,14.9,155.7,14.9L155.7,17.4Z"/>
    <path class="st0" d="M167.8,26.9L165.5,26.9L165.5,25.3C164.5,26.5,163.2,27.1,161.6,27.1C160.4,27.1,159.3,26.8,158.5,26.1C157.7,25.4,157.3,24.5,157.3,23.3C157.3,22.1,157.7,21.3,158.6,20.7C159.5,20.1,160.6,19.8,162.1,19.8L165.3,19.8L165.3,19.4C165.3,17.8,164.4,17,162.7,17C161.6,17,160.5,17.4,159.3,18.2L158.2,16.6C159.6,15.5,161.3,14.9,163.1,14.9C164.5,14.9,165.6,15.3,166.5,16C167.4,16.7,167.8,17.8,167.8,19.3L167.8,26.9ZM165.3,22.5L165.3,21.5L162.5,21.5C160.7,21.5,159.8,22.1,159.8,23.2C159.8,23.8,160,24.2,160.5,24.5C160.9,24.8,161.6,25,162.4,25C163.2,25,163.9,24.8,164.5,24.3C165,23.8,165.3,23.2,165.3,22.5"/>
    <ellipse class="st1" rx="4.5" ry="4.5" transform="translate(0,0) translate(30.6,5.5)"/>
    <ellipse class="st1" rx="2.8" ry="2.8" transform="translate(5.8,-3) translate(11.4,10.8)">
        <ks:animateMotion abs-key-times="0;3.3;4.2" path="M5.8,-3L-1.9,2L5.71822,-3.68178" timing-functions="cubic-bezier(0.177284,1,0.84839,0.928065);linear"/>
    </ellipse>
    <ellipse class="st1" rx="3.6" ry="3.6" transform="translate(0,0) translate(24.9,36)"/>
    <ellipse class="st1" rx="2.8" ry="2.8" transform="translate(-4.24195,31.9907) rotate(-50.4695) scale(1.00002,1.00002) translate(36.6,18.6)">
        <ks:animateMotion abs-key-times="0;3.7" path="M-4.24195,31.9907L3.76244,42.2671" timing-functions="cubic-bezier(0.431607,0,0.638789,0)"/>
    </ellipse>
    <ellipse class="st1" rx="4.4" ry="4.4" transform="translate(0,0) translate(5.1,24)"/>
    <path class="st1" d="M28.4,20.4C28.4,24.3,25.3,27.4,21.4,27.4C17.5,27.4,14.4,24.3,14.4,20.4C14.4,16.5,17.5,13.4,21.4,13.4C25.3,13.4,28.4,16.5,28.4,20.4"/>
</svg>
