<svg width="400" height="400" xmlns="http://www.w3.org/2000/svg">
 <metadata id="metadata8">image/svg+xml</metadata>
 <defs>
  <clipPath id="clipPath18" clipPathUnits="userSpaceOnUse">
   <path id="path16" d="m0,69.333l206.5,0l0,-69.333l-206.5,0l0,69.333z"/>
  </clipPath>
 </defs>
 <g>
  <title>background</title>
  <rect x="-1" y="-1" width="402" height="402" id="canvas_background" fill="none"/>
 </g>
 <g>
  <title>Layer 1</title>
  <g id="svg_3" stroke="null">
   <g id="svg_1" stroke="null">
    <g id="g28" transform="matrix(2.8115453225404923,0,0,-2.8115453225404923,-208.35533026544385,-170.35003805629412) " stroke="null">
     <path id="path30" d="m98.0839,-167.972695l0,-6.469l-3.368,0l0,6.558c0,0.952 -0.145,1.651 -0.435,2.097c-0.29,0.446 -0.759,0.669 -1.405,0.669c-0.647,0 -1.22,-0.242 -1.718,-0.725c-0.499,-0.483 -0.747,-1.193 -0.747,-2.13l0,-6.469l-3.347,0l0,12.001l3.347,0l0,-1.361c0.922,1.041 1.977,1.562 3.167,1.562c0.758,0 1.446,-0.223 2.064,-0.67c0.616,-0.445 1.082,-0.988 1.394,-1.628c0.461,0.729 1.082,1.294 1.862,1.696c0.782,0.401 1.566,0.602 2.354,0.602c1.413,0 2.551,-0.421 3.413,-1.26c0.862,-0.841 1.294,-2.056 1.294,-3.648l0,-7.294l-3.368,0l0,6.558c0,1.844 -0.677,2.766 -2.03,2.766c-0.669,0 -1.249,-0.242 -1.741,-0.725c-0.49,-0.483 -0.736,-1.193 -0.736,-2.13" fill-rule="nonzero" fill="#000333"/>
    </g>
    <g id="g32" transform="matrix(2.8115453225404923,0,0,-2.8115453225404923,-208.35533026544385,-170.35003805629412) " stroke="null">
     <path id="path34" d="m111.6688,-168.441395c0,-0.981 0.279,-1.781 0.837,-2.398c0.558,-0.617 1.271,-0.926 2.142,-0.926c0.87,0 1.583,0.309 2.141,0.926c0.558,0.617 0.836,1.417 0.836,2.398c0,0.982 -0.278,1.785 -0.836,2.409c-0.558,0.625 -1.271,0.937 -2.141,0.937c-0.871,0 -1.584,-0.312 -2.142,-0.937c-0.558,-0.624 -0.837,-1.427 -0.837,-2.409m9.325,0c0,-1.74 -0.602,-3.205 -1.807,-4.395c-1.205,-1.189 -2.718,-1.784 -4.539,-1.784c-1.823,0 -3.335,0.595 -4.541,1.784c-1.204,1.19 -1.806,2.655 -1.806,4.395c0,1.74 0.602,3.208 1.806,4.406c1.206,1.197 2.718,1.796 4.541,1.796c1.821,0 3.334,-0.599 4.539,-1.796c1.205,-1.198 1.807,-2.666 1.807,-4.406" fill-rule="nonzero" fill="#000333"/>
    </g>
    <g id="g36" transform="matrix(2.8115453225404923,0,0,-2.8115453225404923,-208.35533026544385,-170.35003805629412) " stroke="null">
     <path id="path38" d="m126.7704,-168.452095c0,-0.975 0.271,-1.77 0.814,-2.387c0.543,-0.617 1.202,-0.926 1.975,-0.926c0.774,0 1.449,0.309 2.029,0.926c0.58,0.617 0.87,1.409 0.87,2.376c0,0.966 -0.282,1.777 -0.847,2.431c-0.566,0.654 -1.241,0.982 -2.028,0.982c-0.791,0 -1.456,-0.324 -1.999,-0.971c-0.543,-0.647 -0.814,-1.457 -0.814,-2.431m3.614,6.212c1.457,0 2.729,-0.568 3.815,-1.706c1.085,-1.138 1.628,-2.599 1.628,-4.383c0,-1.785 -0.558,-3.28 -1.673,-4.484c-1.116,-1.205 -2.383,-1.807 -3.803,-1.807c-1.421,0 -2.6,0.587 -3.536,1.762l0,-1.584l-3.346,0l0,16.553l3.346,0l0,-5.89c0.922,1.026 2.111,1.539 3.569,1.539" fill-rule="nonzero" fill="#000333"/>
    </g>
    <path id="path40" d="m189.96165,320.10042l-9.40743,0l0,-33.74136l9.40743,0l0,33.74136zm-8.62301,-38.0374c-1.06558,-1.06558 -1.59977,-2.37294 -1.59977,-3.92211c0,-1.54354 0.53419,-2.85091 1.59977,-3.91929c1.06276,-1.06558 2.37013,-1.59696 3.91929,-1.59696c1.54635,0 2.85372,0.53138 3.91929,1.59696c1.06558,1.06839 1.59977,2.37576 1.59977,3.91929c0,1.54916 -0.53419,2.85653 -1.59977,3.92211c-1.06558,1.06558 -2.37294,1.59977 -3.91929,1.59977c-1.54916,0 -2.85653,-0.53419 -3.91929,-1.59977" fill-rule="nonzero" fill="#000333"/>
    <path id="path42" d="m208.27606,320.10042l-9.40743,0l0,-46.5367l9.40743,0l0,46.5367z" fill-rule="nonzero" fill="#000333"/>
    <g id="g44" transform="matrix(2.8115453225404923,0,0,-2.8115453225404923,-208.35533026544385,-170.35003805629412) " stroke="null">
     <path id="path46" d="m158.53601,-165.585895c-0.461,0.387 -1.023,0.58 -1.685,0.58c-0.661,0 -1.267,-0.201 -1.817,-0.602c-0.551,-0.402 -0.87,-0.945 -0.96,-1.629l5.265,0c-0.074,0.714 -0.342,1.264 -0.803,1.651m3.212,-7.116c-1.354,-1.279 -2.942,-1.918 -4.763,-1.918c-1.821,0 -3.327,0.561 -4.516,1.684c-1.191,1.122 -1.786,2.628 -1.786,4.517c0,1.889 0.607,3.391 1.819,4.506c1.212,1.116 2.643,1.673 4.294,1.673c1.651,0 3.051,-0.498 4.205,-1.494c1.152,-0.997 1.728,-2.365 1.728,-4.105l0,-1.785l-8.744,0c0.104,-0.654 0.446,-1.19 1.027,-1.606c0.58,-0.416 1.234,-0.624 1.962,-0.624c1.175,0 2.142,0.393 2.901,1.182l1.873,-2.03z" fill-rule="nonzero" fill="#000333"/>
    </g>
    <g id="g48" transform="matrix(2.8115453225404923,0,0,-2.8115453225404923,-208.35533026544385,-170.35003805629412) " stroke="null">
     <path id="path50" d="m172.99301,-167.638195l6.804,0c0,0.996 -0.312,1.762 -0.937,2.298c-0.625,0.535 -1.394,0.803 -2.308,0.803c-0.915,0 -1.737,-0.279 -2.465,-0.837c-0.73,-0.557 -1.094,-1.312 -1.094,-2.264m9.303,-1.963l-9.303,0c0.06,-0.863 0.454,-1.558 1.183,-2.086c0.728,-0.528 1.561,-0.792 2.498,-0.792c1.487,0 2.617,0.469 3.39,1.406l1.428,-1.562c-1.279,-1.324 -2.944,-1.985 -4.996,-1.985c-1.666,0 -3.083,0.554 -4.25,1.662c-1.168,1.108 -1.751,2.595 -1.751,4.461c0,1.866 0.595,3.35 1.784,4.45c1.19,1.101 2.592,1.651 4.205,1.651c1.613,0 2.986,-0.487 4.116,-1.461c1.13,-0.974 1.696,-2.316 1.696,-4.026l0,-1.718z" fill-rule="nonzero" fill="#000333"/>
    </g>
    <g id="g52" transform="matrix(2.8115453225404923,0,0,-2.8115453225404923,-208.35533026544385,-170.35003805629412) " stroke="null">
     <path id="path54" d="m191.2635,-164.916495c-1.235,0 -2.164,-0.402 -2.789,-1.205c-0.624,-0.803 -0.936,-1.881 -0.936,-3.234l0,-5.086l-2.499,0l0,11.867l2.499,0l0,-2.387c0.401,0.744 0.948,1.353 1.639,1.83c0.691,0.475 1.424,0.721 2.197,0.736l0.023,-2.521l-0.134,0z" fill-rule="nonzero" fill="#000333"/>
    </g>
    <g id="g56" transform="matrix(2.8115453225404923,0,0,-2.8115453225404923,-208.35533026544385,-170.35003805629412) " stroke="null">
     <path id="path58" d="m200.9217,-170.024895l0,1.004l-2.812,0c-1.798,0 -2.698,-0.566 -2.698,-1.696c0,-0.579 0.224,-1.022 0.669,-1.327c0.445,-0.305 1.068,-0.457 1.862,-0.457c0.796,0 1.492,0.223 2.087,0.669c0.595,0.446 0.892,1.048 0.892,1.807m2.499,-4.417l-2.275,0l0,1.584c-0.982,-1.175 -2.298,-1.762 -3.949,-1.762c-1.235,0 -2.256,0.349 -3.067,1.048c-0.812,0.699 -1.216,1.632 -1.216,2.799c0,1.168 0.431,2.042 1.294,2.622c0.862,0.58 2.028,0.87 3.502,0.87l3.233,0l0,0.446c0,1.576 -0.876,2.364 -2.63,2.364c-1.101,0 -2.246,-0.401 -3.436,-1.204l-1.115,1.561c1.442,1.145 3.078,1.718 4.907,1.718c1.398,0 2.539,-0.354 3.425,-1.06c0.884,-0.706 1.327,-1.818 1.327,-3.335l0,-7.651z" fill-rule="nonzero" fill="#000333"/>
    </g>
   </g>
   <g id="svg_2" stroke="null">
    <g id="g60" transform="matrix(2.8115453225404923,0,0,-2.8115453225404923,-208.35533026544385,-170.35003805629412) " stroke="null">
     <path id="path62" d="m118.0248,-186.214795c-0.615,0.637 -1.37,0.955 -2.265,0.955c-0.895,0 -1.65,-0.318 -2.265,-0.955c-0.615,-0.637 -0.923,-1.409 -0.923,-2.316c0,-0.909 0.308,-1.681 0.923,-2.318c0.615,-0.637 1.37,-0.955 2.265,-0.955c0.895,0 1.65,0.318 2.265,0.955c0.615,0.637 0.923,1.409 0.923,2.318c0,0.907 -0.308,1.679 -0.923,2.316m1.117,-5.646c-0.912,-0.891 -2.039,-1.336 -3.382,-1.336c-1.342,0 -2.469,0.445 -3.381,1.336c-0.912,0.89 -1.368,2 -1.368,3.33c0,1.329 0.456,2.438 1.368,3.329c0.912,0.89 2.039,1.336 3.381,1.336c1.343,0 2.47,-0.446 3.382,-1.336c0.912,-0.891 1.368,-2 1.368,-3.329c0,-1.33 -0.456,-2.44 -1.368,-3.33" fill-rule="nonzero" fill="#adadad"/>
    </g>
    <g id="g64" transform="matrix(2.8115453225404923,0,0,-2.8115453225404923,-208.35533026544385,-170.35003805629412) " stroke="null">
     <path id="path66" d="m125.162,-185.273395c-0.443,0 -0.807,-0.09 -1.091,-0.27c-0.284,-0.181 -0.426,-0.455 -0.426,-0.82c0,-0.366 0.142,-0.645 0.426,-0.839c0.284,-0.194 0.889,-0.402 1.814,-0.626c0.924,-0.223 1.621,-0.538 2.09,-0.942c0.469,-0.404 0.704,-1 0.704,-1.787c0,-0.787 -0.297,-1.427 -0.891,-1.917c-0.594,-0.49 -1.372,-0.736 -2.336,-0.736c-1.411,0 -2.663,0.487 -3.756,1.458l0.955,1.15c0.912,-0.792 1.859,-1.188 2.84,-1.188c0.49,0 0.879,0.105 1.168,0.316c0.288,0.211 0.432,0.491 0.432,0.839c0,0.348 -0.135,0.62 -0.407,0.813c-0.27,0.195 -0.738,0.37 -1.4,0.529c-0.662,0.16 -1.166,0.305 -1.51,0.439c-0.343,0.134 -0.649,0.308 -0.916,0.522c-0.534,0.405 -0.8,1.025 -0.8,1.859c0,0.835 0.303,1.478 0.91,1.93c0.606,0.452 1.357,0.677 2.252,0.677c0.576,0 1.148,-0.095 1.716,-0.284c0.568,-0.189 1.058,-0.456 1.471,-0.8l-0.812,-1.148c-0.267,0.24 -0.628,0.438 -1.084,0.594c-0.456,0.154 -0.907,0.231 -1.349,0.231" fill-rule="nonzero" fill="#adadad"/>
    </g>
    <g id="g68" transform="matrix(2.8115453225404923,0,0,-2.8115453225404923,-208.35533026544385,-170.35003805629412) " stroke="null">
     <path id="path70" d="m130.5624,-193.106395l0,9.021l1.523,0l0,-7.576l4.117,0l0,-1.445l-5.64,0z" fill-rule="nonzero" fill="#adadad"/>
    </g>
    <g id="g72" transform="matrix(2.8115453225404923,0,0,-2.8115453225404923,-208.35533026544385,-170.35003805629412) " stroke="null">
     <path id="path74" d="m144.0419,-186.214795c-0.615,0.637 -1.37,0.955 -2.265,0.955c-0.895,0 -1.65,-0.318 -2.265,-0.955c-0.616,-0.637 -0.923,-1.409 -0.923,-2.316c0,-0.909 0.307,-1.681 0.923,-2.318c0.615,-0.637 1.37,-0.955 2.265,-0.955c0.895,0 1.65,0.318 2.265,0.955c0.615,0.637 0.923,1.409 0.923,2.318c0,0.907 -0.308,1.679 -0.923,2.316m1.116,-5.646c-0.912,-0.891 -2.039,-1.336 -3.381,-1.336c-1.342,0 -2.469,0.445 -3.381,1.336c-0.913,0.89 -1.369,2 -1.369,3.33c0,1.329 0.456,2.438 1.369,3.329c0.912,0.89 2.039,1.336 3.381,1.336c1.342,0 2.469,-0.446 3.381,-1.336c0.912,-0.891 1.368,-2 1.368,-3.329c0,-1.33 -0.456,-2.44 -1.368,-3.33" fill-rule="nonzero" fill="#adadad"/>
    </g>
    <g id="g76" transform="matrix(2.8115453225404923,0,0,-2.8115453225404923,-208.35533026544385,-170.35003805629412) " stroke="null">
     <path id="path78" d="m155.5214,-187.609395c0.258,0.354 0.387,0.71 0.387,1.071c0,0.362 -0.138,0.669 -0.413,0.923c-0.276,0.254 -0.624,0.381 -1.045,0.381c-0.74,0 -1.356,-0.379 -1.846,-1.136l-1.226,0.71c0.396,0.594 0.832,1.041 1.31,1.342c0.478,0.302 1.093,0.452 1.846,0.452c0.752,0 1.413,-0.239 1.98,-0.717c0.569,-0.477 0.852,-1.128 0.852,-1.955c0,-0.464 -0.12,-0.907 -0.362,-1.329c-0.24,-0.422 -0.683,-0.964 -1.329,-1.626l-2.116,-2.155l4.091,0l0,-1.458l-6.169,0l0,1.29l2.736,2.749c0.611,0.619 1.045,1.106 1.304,1.458" fill-rule="nonzero" fill="#adadad"/>
    </g>
    <g id="g80" transform="matrix(2.8115453225404923,0,0,-2.8115453225404923,-208.35533026544385,-170.35003805629412) " stroke="null">
     <path id="path82" d="m161.1025,-186.098595c-0.357,-0.62 -0.536,-1.433 -0.536,-2.439c0,-1.007 0.179,-1.82 0.536,-2.44c0.356,-0.619 0.914,-0.929 1.671,-0.929c0.757,0 1.31,0.308 1.658,0.923c0.349,0.615 0.525,1.43 0.525,2.446c0,1.014 -0.176,1.83 -0.525,2.445c-0.348,0.615 -0.901,0.923 -1.658,0.923c-0.757,0 -1.315,-0.31 -1.671,-0.929m-1.091,-5.84c-0.61,0.847 -0.916,1.981 -0.916,3.401c0,1.419 0.306,2.552 0.916,3.4c0.612,0.848 1.531,1.271 2.762,1.271c1.23,0 2.151,-0.423 2.762,-1.271c0.611,-0.848 0.917,-1.981 0.917,-3.4c0,-1.42 -0.306,-2.554 -0.917,-3.401c-0.611,-0.847 -1.532,-1.271 -2.762,-1.271c-1.231,0 -2.15,0.424 -2.762,1.271" fill-rule="nonzero" fill="#adadad"/>
    </g>
    <g id="g84" transform="matrix(2.8115453225404923,0,0,-2.8115453225404923,-208.35533026544385,-170.35003805629412) " stroke="null">
     <path id="path86" d="m167.5868,-184.085895l3.278,0l0,-9.02l-1.445,0l0,7.666l-1.833,0l0,1.354z" fill-rule="nonzero" fill="#adadad"/>
    </g>
    <g id="g88" transform="matrix(2.8115453225404923,0,0,-2.8115453225404923,-208.35533026544385,-170.35003805629412) " stroke="null">
     <path id="path90" d="m176.4208,-188.641595c-0.521,0 -0.955,-0.144 -1.303,-0.432c-0.348,-0.289 -0.523,-0.663 -0.523,-1.123c0,-0.461 0.168,-0.856 0.504,-1.187c0.335,-0.331 0.757,-0.497 1.264,-0.497c0.508,0 0.929,0.148 1.265,0.445c0.336,0.297 0.503,0.676 0.503,1.136c0,0.46 -0.154,0.851 -0.464,1.175c-0.31,0.322 -0.726,0.483 -1.246,0.483m0.277,3.355c-0.799,0 -1.388,-0.27 -1.767,-0.812c-0.379,-0.542 -0.574,-1.273 -0.581,-2.194c0.215,0.241 0.525,0.466 0.929,0.677c0.405,0.211 0.852,0.317 1.342,0.317c0.809,0 1.486,-0.27 2.033,-0.807c0.546,-0.538 0.82,-1.252 0.82,-2.142c0,-0.891 -0.295,-1.607 -0.885,-2.149c-0.589,-0.542 -1.331,-0.813 -2.226,-0.813c-1.445,0 -2.443,0.645 -2.994,1.935c-0.309,0.74 -0.465,1.575 -0.465,2.504c0,0.93 0.099,1.703 0.297,2.323c0.199,0.62 0.469,1.11 0.814,1.471c0.671,0.706 1.494,1.059 2.47,1.059c0.977,0 1.861,-0.306 2.653,-0.916l-0.762,-1.123c-0.197,0.171 -0.462,0.327 -0.793,0.464c-0.332,0.138 -0.626,0.206 -0.885,0.206" fill-rule="nonzero" fill="#adadad"/>
    </g>
   </g>
  </g>
  <g id="svg_7" stroke="null">
   <g id="g92" transform="matrix(5.657708140480599,0,0,-5.657708140480599,-72.34033447396308,326.73523156812286) " stroke="null">
    <path id="path94" d="m61.83568,49.21241c0,-2.466 -1.999,-4.465 -4.465,-4.465c-2.467,0 -4.466,1.999 -4.466,4.465c0,2.466 1.999,4.465 4.466,4.465c2.466,0 4.465,-1.999 4.465,-4.465" fill-rule="nonzero" fill="#00dbff"/>
   </g>
   <g id="g96" transform="matrix(5.657708140480599,0,0,-5.657708140480599,-72.34033447396308,326.73523156812286) " stroke="null">
    <path id="path98" d="m40.90158,43.94881c0,-1.545 -1.253,-2.798 -2.798,-2.798c-1.546,0 -2.799,1.253 -2.799,2.798c0,1.545 1.253,2.798 2.799,2.798c1.545,0 2.798,-1.253 2.798,-2.798" fill-rule="nonzero" fill="#00dbff"/>
   </g>
   <g id="g100" transform="matrix(5.657708140480599,0,0,-5.657708140480599,-72.34033447396308,326.73523156812286) " stroke="null">
    <path id="path102" d="m55.29529,18.71881c0,-1.988 -1.611,-3.599 -3.599,-3.599c-1.988,0 -3.6,1.611 -3.6,3.599c0,1.988 1.612,3.599 3.6,3.599c1.988,0 3.599,-1.611 3.599,-3.599" fill-rule="nonzero" fill="#00dbff"/>
   </g>
   <g id="g104" transform="matrix(5.657708140480599,0,0,-5.657708140480599,-72.34033447396308,326.73523156812286) " stroke="null">
    <path id="path106" d="m61.60468,33.90431c-1.191,0.983 -1.361,2.748 -0.377,3.939c0.984,1.192 2.748,1.361 3.94,0.377c1.191,-0.983 1.36,-2.747 0.376,-3.939c-0.984,-1.192 -2.748,-1.36 -3.939,-0.377" fill-rule="nonzero" fill="#00dbff"/>
   </g>
   <g id="g108" transform="matrix(5.657708140480599,0,0,-5.657708140480599,-72.34033447396308,326.73523156812286) " stroke="null">
    <path id="path110" d="m36.30488,30.74711c0,-2.446 -1.983,-4.429 -4.429,-4.429c-2.447,0 -4.429,1.983 -4.429,4.429c0,2.447 1.982,4.429 4.429,4.429c2.446,0 4.429,-1.982 4.429,-4.429" fill-rule="nonzero" fill="#00dbff"/>
   </g>
   <g id="g24" transform="matrix(5.657708140480599,0,0,-5.657708140480599,-72.34033447396308,326.73523156812286) " stroke="null">
    <path id="svg_5" d="m55.18188,34.34381c0,-3.87 -3.132,-7.003 -7.003,-7.003c-3.864,0 -7.002,3.133 -7.002,7.003c0,3.864 3.138,7.001 7.002,7.001c3.871,0 7.003,-3.137 7.003,-7.001" fill-rule="nonzero" fill="#00dbff"/>
   </g>
  </g>
 </g>
</svg>