<svg width="400" height="400" xmlns="http://www.w3.org/2000/svg">
 <metadata id="metadata8">image/svg+xml</metadata>
 <defs>
  <clipPath clipPathUnits="userSpaceOnUse" id="clipPath18">
   <path d="m0,69.333l206.5,0l0,-69.333l-206.5,0l0,69.333z" id="path16"/>
  </clipPath>
 </defs>
 <g>
  <title>background</title>
  <rect fill="none" id="canvas_background" height="402" width="402" y="-1" x="-1"/>
 </g>
 <g>
  <title>Layer 1</title>
  <g stroke="null" id="svg_1">
   <g stroke="null" transform="matrix(2.8115453225404923,0,0,-2.8115453225404923,-208.35533026544385,-170.35003805629412) " id="g28">
    <path fill="#000333" fill-rule="nonzero" d="m98.0839,-167.97269l0,-6.469l-3.368,0l0,6.558c0,0.952 -0.145,1.651 -0.435,2.097c-0.29,0.446 -0.759,0.669 -1.405,0.669c-0.647,0 -1.22,-0.242 -1.718,-0.725c-0.499,-0.483 -0.747,-1.193 -0.747,-2.13l0,-6.469l-3.347,0l0,12.001l3.347,0l0,-1.361c0.922,1.041 1.977,1.562 3.167,1.562c0.758,0 1.446,-0.223 2.064,-0.67c0.616,-0.445 1.082,-0.988 1.394,-1.628c0.461,0.729 1.082,1.294 1.862,1.696c0.782,0.401 1.566,0.602 2.354,0.602c1.413,0 2.551,-0.421 3.413,-1.26c0.862,-0.841 1.294,-2.056 1.294,-3.648l0,-7.294l-3.368,0l0,6.558c0,1.844 -0.677,2.766 -2.03,2.766c-0.669,0 -1.249,-0.242 -1.741,-0.725c-0.49,-0.483 -0.736,-1.193 -0.736,-2.13" id="path30"/>
   </g>
   <g stroke="null" transform="matrix(2.8115453225404923,0,0,-2.8115453225404923,-208.35533026544385,-170.35003805629412) " id="g32">
    <path fill="#000333" fill-rule="nonzero" d="m111.6688,-168.44139c0,-0.981 0.279,-1.78101 0.837,-2.398c0.558,-0.617 1.271,-0.926 2.142,-0.926c0.87,0 1.583,0.309 2.141,0.926c0.558,0.61699 0.836,1.417 0.836,2.398c0,0.98199 -0.278,1.78499 -0.836,2.40899c-0.558,0.625 -1.271,0.93701 -2.141,0.93701c-0.871,0 -1.584,-0.31201 -2.142,-0.93701c-0.558,-0.624 -0.837,-1.427 -0.837,-2.40899m9.325,0c0,-1.74001 -0.602,-3.20501 -1.807,-4.39501c-1.205,-1.189 -2.718,-1.784 -4.539,-1.784c-1.823,0 -3.335,0.595 -4.541,1.784c-1.204,1.19 -1.806,2.655 -1.806,4.39501c0,1.74 0.602,3.20799 1.806,4.406c1.206,1.197 2.718,1.79599 4.541,1.79599c1.821,0 3.334,-0.59899 4.539,-1.79599c1.205,-1.19801 1.807,-2.666 1.807,-4.406" id="path34"/>
   </g>
   <g stroke="null" transform="matrix(2.8115453225404923,0,0,-2.8115453225404923,-208.35533026544385,-170.35003805629412) " id="g36">
    <path fill="#000333" fill-rule="nonzero" d="m126.7704,-168.4521c0,-0.975 0.271,-1.77 0.814,-2.387c0.543,-0.617 1.202,-0.926 1.975,-0.926c0.774,0 1.449,0.309 2.029,0.926c0.58,0.617 0.87,1.409 0.87,2.376c0,0.966 -0.282,1.777 -0.847,2.43101c-0.566,0.65399 -1.241,0.982 -2.028,0.982c-0.791,0 -1.456,-0.32401 -1.999,-0.97101c-0.543,-0.64699 -0.814,-1.45699 -0.814,-2.431m3.614,6.212c1.457,0 2.729,-0.568 3.815,-1.706c1.085,-1.138 1.628,-2.599 1.628,-4.383c0,-1.785 -0.558,-3.28 -1.673,-4.484c-1.116,-1.205 -2.383,-1.807 -3.803,-1.807c-1.421,0 -2.6,0.587 -3.536,1.762l0,-1.584l-3.346,0l0,16.553l3.346,0l0,-5.89c0.922,1.026 2.111,1.539 3.569,1.539" id="path38"/>
   </g>
   <path fill="#000333" fill-rule="nonzero" d="m189.96165,320.10042l-9.40743,0l0,-33.74136l9.40743,0l0,33.74136zm-8.62301,-38.0374c-1.06558,-1.06558 -1.59977,-2.37294 -1.59977,-3.92211c0,-1.54354 0.53419,-2.85091 1.59977,-3.91929c1.06276,-1.06558 2.37013,-1.59696 3.91929,-1.59696c1.54635,0 2.85372,0.53138 3.91929,1.59696c1.06558,1.06839 1.59977,2.37576 1.59977,3.91929c0,1.54916 -0.53419,2.85653 -1.59977,3.92211c-1.06558,1.06558 -2.37294,1.59977 -3.91929,1.59977c-1.54916,0 -2.85653,-0.53419 -3.91929,-1.59977" id="path40"/>
   <path fill="#000333" fill-rule="nonzero" d="m208.27606,320.10042l-9.40743,0l0,-46.5367l9.40743,0l0,46.5367z" id="path42"/>
   <g stroke="null" transform="matrix(2.8115453225404923,0,0,-2.8115453225404923,-208.35533026544385,-170.35003805629412) " id="g44">
    <path fill="#000333" fill-rule="nonzero" d="m158.53601,-165.58589c-0.461,0.387 -1.023,0.58 -1.685,0.58c-0.661,0 -1.267,-0.201 -1.817,-0.602c-0.551,-0.402 -0.87,-0.945 -0.96,-1.629l5.265,0c-0.074,0.714 -0.342,1.264 -0.803,1.651m3.212,-7.116c-1.354,-1.279 -2.942,-1.918 -4.763,-1.918c-1.821,0 -3.327,0.561 -4.516,1.684c-1.191,1.122 -1.786,2.628 -1.786,4.517c0,1.889 0.607,3.39099 1.819,4.506c1.212,1.116 2.643,1.673 4.294,1.673c1.651,0 3.051,-0.498 4.205,-1.494c1.152,-0.99701 1.728,-2.365 1.728,-4.105l0,-1.785l-8.744,0c0.104,-0.654 0.446,-1.19 1.027,-1.606c0.58,-0.416 1.234,-0.624 1.962,-0.624c1.175,0 2.142,0.393 2.901,1.182l1.873,-2.03z" id="path46"/>
   </g>
   <g stroke="null" transform="matrix(2.8115453225404923,0,0,-2.8115453225404923,-208.35533026544385,-170.35003805629412) " id="g48">
    <path fill="#000333" fill-rule="nonzero" d="m172.99301,-167.63819l6.804,0c0,0.996 -0.312,1.762 -0.937,2.298c-0.625,0.535 -1.394,0.803 -2.308,0.803c-0.915,0 -1.737,-0.279 -2.465,-0.837c-0.73,-0.557 -1.094,-1.312 -1.094,-2.264m9.303,-1.963l-9.303,0c0.06,-0.863 0.454,-1.558 1.183,-2.08601c0.728,-0.52799 1.561,-0.792 2.498,-0.792c1.487,0 2.617,0.469 3.39,1.40601l1.428,-1.56201c-1.279,-1.324 -2.944,-1.985 -4.996,-1.985c-1.666,0 -3.083,0.554 -4.25,1.662c-1.168,1.108 -1.751,2.595 -1.751,4.461c0,1.86601 0.595,3.35 1.784,4.45c1.19,1.101 2.592,1.651 4.205,1.651c1.613,0 2.986,-0.487 4.116,-1.461c1.13,-0.974 1.696,-2.316 1.696,-4.026l0,-1.718l0,0.00001z" id="path50"/>
   </g>
   <g stroke="null" transform="matrix(2.8115453225404923,0,0,-2.8115453225404923,-208.35533026544385,-170.35003805629412) " id="g52">
    <path fill="#000333" fill-rule="nonzero" d="m191.2635,-164.91649c-1.235,0 -2.164,-0.402 -2.789,-1.20501c-0.624,-0.803 -0.936,-1.881 -0.936,-3.234l0,-5.086l-2.499,0l0,11.867l2.499,0l0,-2.387c0.401,0.744 0.948,1.353 1.639,1.83c0.691,0.475 1.424,0.721 2.197,0.736l0.023,-2.521l-0.134,0l0,0.00001z" id="path54"/>
   </g>
   <g stroke="null" transform="matrix(2.8115453225404923,0,0,-2.8115453225404923,-208.35533026544385,-170.35003805629412) " id="g56">
    <path fill="#000333" fill-rule="nonzero" d="m200.9217,-170.02489l0,1.004l-2.812,0c-1.798,0 -2.698,-0.566 -2.698,-1.696c0,-0.57901 0.224,-1.022 0.669,-1.327c0.445,-0.305 1.068,-0.457 1.862,-0.457c0.796,0 1.492,0.223 2.087,0.669c0.595,0.446 0.892,1.048 0.892,1.807m2.499,-4.417l-2.275,0l0,1.584c-0.982,-1.175 -2.298,-1.762 -3.949,-1.762c-1.235,0 -2.256,0.349 -3.067,1.048c-0.812,0.699 -1.216,1.632 -1.216,2.799c0,1.168 0.431,2.042 1.294,2.622c0.862,0.58 2.028,0.87 3.502,0.87l3.233,0l0,0.446c0,1.576 -0.876,2.364 -2.63,2.364c-1.101,0 -2.246,-0.401 -3.436,-1.204l-1.115,1.561c1.442,1.145 3.078,1.718 4.907,1.718c1.398,0 2.539,-0.35401 3.425,-1.06c0.884,-0.706 1.327,-1.81801 1.327,-3.33501l0,-7.651l0,0.00001z" id="path58"/>
   </g>
  </g>
  <g stroke="null" id="svg_2">
   <g stroke="null" transform="matrix(2.8115453225404923,0,0,-2.8115453225404923,-208.35533026544385,-170.35003805629412) " id="g60">
    <path fill="#000000" fill-rule="nonzero" d="m134.498757,-186.2148c-0.615,0.637 -1.37,0.95501 -2.265,0.95501c-0.895,0 -1.65,-0.31801 -2.265,-0.95501c-0.615,-0.637 -0.923,-1.409 -0.923,-2.316c0,-0.909 0.308,-1.681 0.923,-2.318c0.615,-0.637 1.37,-0.955 2.265,-0.955c0.895,0 1.65,0.318 2.265,0.955c0.615,0.637 0.923,1.409 0.923,2.318c0,0.907 -0.308,1.679 -0.923,2.316m1.117,-5.64599c-0.912,-0.891 -2.039,-1.33601 -3.382,-1.33601c-1.342,0 -2.469,0.445 -3.381,1.33601c-0.912,0.88999 -1.368,2 -1.368,3.33c0,1.329 0.456,2.438 1.368,3.329c0.912,0.89 2.039,1.336 3.381,1.336c1.343,0 2.47,-0.446 3.382,-1.336c0.912,-0.891 1.368,-2 1.368,-3.329c0,-1.33 -0.456,-2.44 -1.368,-3.33" id="path62"/>
   </g>
   <g stroke="null" transform="matrix(2.8115453225404923,0,0,-2.8115453225404923,-208.35533026544385,-170.35003805629412) " id="g64">
    <path fill="#000000" fill-rule="nonzero" d="m141.635957,-185.27339c-0.443,0 -0.807,-0.09 -1.091,-0.27001c-0.284,-0.181 -0.426,-0.455 -0.426,-0.81999c0,-0.36601 0.142,-0.64501 0.426,-0.839c0.284,-0.194 0.889,-0.402 1.814,-0.62601c0.924,-0.223 1.621,-0.538 2.09,-0.942c0.469,-0.404 0.704,-1 0.704,-1.787c0,-0.787 -0.297,-1.427 -0.891,-1.917c-0.594,-0.49 -1.372,-0.736 -2.336,-0.736c-1.411,0 -2.663,0.487 -3.756,1.458l0.955,1.15c0.912,-0.792 1.859,-1.18799 2.84,-1.18799c0.49,0 0.879,0.105 1.168,0.316c0.288,0.211 0.432,0.491 0.432,0.839c0,0.348 -0.135,0.62 -0.407,0.81299c-0.27,0.195 -0.738,0.37001 -1.4,0.529c-0.662,0.16 -1.166,0.30501 -1.51,0.439c-0.343,0.134 -0.649,0.308 -0.916,0.522c-0.534,0.405 -0.8,1.025 -0.8,1.859c0,0.835 0.303,1.478 0.91,1.93c0.606,0.452 1.357,0.677 2.252,0.677c0.576,0 1.148,-0.095 1.716,-0.284c0.568,-0.18899 1.058,-0.45599 1.471,-0.8l-0.812,-1.148c-0.267,0.24 -0.628,0.438 -1.084,0.594c-0.456,0.154 -0.907,0.231 -1.349,0.231" id="path66"/>
   </g>
   <g stroke="null" transform="matrix(2.8115453225404923,0,0,-2.8115453225404923,-208.35533026544385,-170.35003805629412) " id="g68">
    <path fill="#000000" fill-rule="nonzero" d="m147.036357,-193.10639l0,9.02099l1.523,0l0,-7.57599l4.117,0l0,-1.445l-5.64,0z" id="path70"/>
   </g>
   <g stroke="null" transform="matrix(2.8115453225404923,0,0,-2.8115453225404923,-208.35533026544385,-170.35003805629412) " id="g72">
    <path fill="#000000" fill-rule="nonzero" d="m160.515857,-186.2148c-0.615,0.637 -1.37,0.95501 -2.265,0.95501c-0.895,0 -1.65,-0.31801 -2.265,-0.95501c-0.616,-0.637 -0.923,-1.409 -0.923,-2.316c0,-0.909 0.307,-1.681 0.923,-2.318c0.615,-0.637 1.37,-0.955 2.265,-0.955c0.895,0 1.65,0.318 2.265,0.955c0.615,0.637 0.923,1.409 0.923,2.318c0,0.907 -0.308,1.679 -0.923,2.316m1.116,-5.64599c-0.912,-0.891 -2.039,-1.33601 -3.381,-1.33601c-1.342,0 -2.469,0.445 -3.381,1.33601c-0.913,0.88999 -1.369,2 -1.369,3.33c0,1.329 0.456,2.438 1.369,3.329c0.912,0.89 2.039,1.336 3.381,1.336c1.342,0 2.469,-0.446 3.381,-1.336c0.912,-0.891 1.368,-2 1.368,-3.329c0,-1.33 -0.456,-2.44 -1.368,-3.33" id="path74"/>
   </g>
  </g>
  <g stroke="null" id="svg_7">
   <g stroke="null" transform="matrix(5.657708140480599,0,0,-5.657708140480599,-72.34033447396308,326.73523156812286) " id="g92">
    <path fill="#00dbff" fill-rule="nonzero" d="m61.83568,49.21241c0,-2.466 -1.999,-4.465 -4.465,-4.465c-2.467,0 -4.466,1.999 -4.466,4.465c0,2.466 1.999,4.465 4.466,4.465c2.466,0 4.465,-1.999 4.465,-4.465" id="path94"/>
   </g>
   <g stroke="null" transform="matrix(5.657708140480599,0,0,-5.657708140480599,-72.34033447396308,326.73523156812286) " id="g96">
    <path fill="#00dbff" fill-rule="nonzero" d="m40.90158,43.94881c0,-1.545 -1.253,-2.798 -2.798,-2.798c-1.546,0 -2.799,1.253 -2.799,2.798c0,1.545 1.253,2.798 2.799,2.798c1.545,0 2.798,-1.253 2.798,-2.798" id="path98"/>
   </g>
   <g stroke="null" transform="matrix(5.657708140480599,0,0,-5.657708140480599,-72.34033447396308,326.73523156812286) " id="g100">
    <path fill="#00dbff" fill-rule="nonzero" d="m55.29529,18.71881c0,-1.988 -1.611,-3.599 -3.599,-3.599c-1.988,0 -3.6,1.611 -3.6,3.599c0,1.988 1.612,3.599 3.6,3.599c1.988,0 3.599,-1.611 3.599,-3.599" id="path102"/>
   </g>
   <g stroke="null" transform="matrix(5.657708140480599,0,0,-5.657708140480599,-72.34033447396308,326.73523156812286) " id="g104">
    <path fill="#00dbff" fill-rule="nonzero" d="m61.60468,33.90431c-1.191,0.983 -1.361,2.748 -0.377,3.939c0.984,1.192 2.748,1.361 3.94,0.377c1.191,-0.983 1.36,-2.747 0.376,-3.939c-0.984,-1.192 -2.748,-1.36 -3.939,-0.377" id="path106"/>
   </g>
   <g stroke="null" transform="matrix(5.657708140480599,0,0,-5.657708140480599,-72.34033447396308,326.73523156812286) " id="g108">
    <path fill="#00dbff" fill-rule="nonzero" d="m36.30488,30.74711c0,-2.446 -1.983,-4.429 -4.429,-4.429c-2.447,0 -4.429,1.983 -4.429,4.429c0,2.447 1.982,4.429 4.429,4.429c2.446,0 4.429,-1.982 4.429,-4.429" id="path110"/>
   </g>
   <g stroke="null" transform="matrix(5.657708140480599,0,0,-5.657708140480599,-72.34033447396308,326.73523156812286) " id="g24">
    <path fill="#00dbff" fill-rule="nonzero" d="m55.18188,34.34381c0,-3.87 -3.132,-7.003 -7.003,-7.003c-3.864,0 -7.002,3.133 -7.002,7.003c0,3.864 3.138,7.001 7.002,7.001c3.871,0 7.003,-3.137 7.003,-7.001" id="svg_5"/>
   </g>
  </g>
 </g>
</svg>