<svg width="640" height="212" xmlns="http://www.w3.org/2000/svg">
 <metadata id="metadata8">image/svg+xml</metadata>
 <defs>
  <clipPath id="clipPath18" clipPathUnits="userSpaceOnUse">
   <path id="path16" d="m0,69.333l206.5,0l0,-69.333l-206.5,0l0,69.333z"/>
  </clipPath>
 </defs>
 <g>
  <title>background</title>
  <rect x="-1" y="-1" width="642" height="214" id="canvas_background" fill="none"/>
 </g>
 <g>
  <title>Layer 1</title>
  <g stroke="null" id="svg_7">
   <g stroke="null" id="g92" transform="matrix(3.2268468107683335,0,0,-3.2268468107683335,-5.62077353169326,196.2528893375533) ">
    <path stroke="null" id="path94" d="m55.017878,42.704509c0,-2.466 -1.999,-4.465 -4.465,-4.465c-2.467,0 -4.466,1.999 -4.466,4.465c0,2.466 1.999,4.465 4.466,4.465c2.466,0 4.465,-1.999 4.465,-4.465" fill-rule="nonzero" fill="#00dbff"/>
   </g>
   <g stroke="null" id="g96" transform="matrix(3.2268468107683335,0,0,-3.2268468107683335,-5.62077353169326,196.2528893375533) ">
    <path stroke="null" id="path98" d="m34.083778,37.440909c0,-1.545 -1.253,-2.798 -2.798,-2.798c-1.546,0 -2.799,1.253 -2.799,2.798c0,1.545 1.253,2.798 2.799,2.798c1.545,0 2.798,-1.253 2.798,-2.798" fill-rule="nonzero" fill="#00dbff"/>
   </g>
   <g stroke="null" id="g100" transform="matrix(3.2268468107683335,0,0,-3.2268468107683335,-5.62077353169326,196.2528893375533) ">
    <path stroke="null" id="path102" d="m48.477488,12.210909c0,-1.988 -1.611,-3.599 -3.599,-3.599c-1.988,0 -3.6,1.611 -3.6,3.599c0,1.988 1.612,3.599 3.6,3.599c1.988,0 3.599,-1.611 3.599,-3.599" fill-rule="nonzero" fill="#00dbff"/>
   </g>
   <g stroke="null" id="g104" transform="matrix(3.2268468107683335,0,0,-3.2268468107683335,-5.62077353169326,196.2528893375533) ">
    <path stroke="null" id="path106" d="m54.786878,27.396409c-1.191,0.983 -1.361,2.748 -0.377,3.939c0.984,1.192 2.748,1.361 3.94,0.377c1.191,-0.983 1.36,-2.747 0.376,-3.939c-0.984,-1.192 -2.748,-1.36 -3.939,-0.377" fill-rule="nonzero" fill="#00dbff"/>
   </g>
   <g stroke="null" id="g108" transform="matrix(3.2268468107683335,0,0,-3.2268468107683335,-5.62077353169326,196.2528893375533) ">
    <path stroke="null" id="path110" d="m29.487078,24.239209c0,-2.446 -1.983,-4.429 -4.429,-4.429c-2.447,0 -4.429,1.983 -4.429,4.429c0,2.447 1.982,4.429 4.429,4.429c2.446,0 4.429,-1.982 4.429,-4.429" fill-rule="nonzero" fill="#00dbff"/>
   </g>
   <g stroke="null" id="g24" transform="matrix(3.2268468107683335,0,0,-3.2268468107683335,-5.62077353169326,196.2528893375533) ">
    <path stroke="null" id="svg_5" d="m48.364078,27.835909c0,-3.87 -3.132,-7.003 -7.003,-7.003c-3.864,0 -7.002,3.133 -7.002,7.003c0,3.864 3.138,7.001 7.002,7.001c3.871,0 7.003,-3.137 7.003,-7.001" fill-rule="nonzero" fill="#00dbff"/>
   </g>
  </g>
  <g stroke="null" id="svg_1">
   <g stroke="null" id="g28" transform="matrix(3.1037502995592767,0,0,-3.1037502995592767,-330.8629111874361,-206.76796483948488) ">
    <path stroke="null" id="path30" d="m187.030188,-100.66691l0,-6.469l-3.368,0l0,6.558c0,0.952 -0.145,1.651 -0.435,2.097c-0.29,0.446 -0.759,0.669 -1.405,0.669c-0.647,0 -1.22,-0.242 -1.718,-0.725c-0.499,-0.483 -0.747,-1.193 -0.747,-2.13l0,-6.469l-3.347,0l0,12.001l3.347,0l0,-1.361c0.922,1.041 1.977,1.562 3.167,1.562c0.758,0 1.446,-0.223 2.064,-0.67c0.616,-0.445 1.082,-0.988 1.394,-1.628c0.461,0.729 1.082,1.294 1.862,1.696c0.782,0.401 1.566,0.602 2.354,0.602c1.413,0 2.551,-0.421 3.413,-1.26c0.862,-0.841 1.294,-2.056 1.294,-3.648l0,-7.294l-3.368,0l0,6.558c0,1.844 -0.677,2.766 -2.03,2.766c-0.669,0 -1.249,-0.242 -1.741,-0.725c-0.49,-0.483 -0.736,-1.193 -0.736,-2.13" fill-rule="nonzero" fill="#000333"/>
   </g>
   <g stroke="null" id="g32" transform="matrix(3.1037502995592767,0,0,-3.1037502995592767,-330.8629111874361,-206.76796483948488) ">
    <path stroke="null" id="path34" d="m200.615088,-101.13561c0,-0.981 0.279,-1.78101 0.837,-2.398c0.558,-0.617 1.271,-0.926 2.142,-0.926c0.87,0 1.583,0.309 2.141,0.926c0.558,0.61699 0.836,1.417 0.836,2.398c0,0.98199 -0.278,1.78499 -0.836,2.40899c-0.558,0.625 -1.271,0.93701 -2.141,0.93701c-0.871,0 -1.584,-0.31201 -2.142,-0.93701c-0.558,-0.624 -0.837,-1.427 -0.837,-2.40899m9.325,0c0,-1.74001 -0.602,-3.20501 -1.807,-4.39501c-1.205,-1.189 -2.718,-1.784 -4.539,-1.784c-1.823,0 -3.335,0.595 -4.541,1.784c-1.204,1.19 -1.806,2.655 -1.806,4.39501c0,1.74 0.602,3.20799 1.806,4.406c1.206,1.197 2.718,1.79599 4.541,1.79599c1.821,0 3.334,-0.59899 4.539,-1.79599c1.205,-1.19801 1.807,-2.666 1.807,-4.406" fill-rule="nonzero" fill="#000333"/>
   </g>
   <g stroke="null" id="g36" transform="matrix(3.1037502995592767,0,0,-3.1037502995592767,-330.8629111874361,-206.76796483948488) ">
    <path stroke="null" id="path38" d="m215.716688,-101.14632c0,-0.975 0.271,-1.77 0.814,-2.387c0.543,-0.617 1.202,-0.926 1.975,-0.926c0.774,0 1.449,0.309 2.029,0.926c0.58,0.617 0.87,1.409 0.87,2.376c0,0.966 -0.282,1.777 -0.847,2.43101c-0.566,0.65399 -1.241,0.982 -2.028,0.982c-0.791,0 -1.456,-0.32401 -1.999,-0.97101c-0.543,-0.64699 -0.814,-1.45699 -0.814,-2.431m3.614,6.212c1.457,0 2.729,-0.568 3.815,-1.706c1.085,-1.138 1.628,-2.599 1.628,-4.383c0,-1.785 -0.558,-3.28 -1.673,-4.484c-1.116,-1.205 -2.383,-1.807 -3.803,-1.807c-1.421,0 -2.6,0.587 -3.536,1.762l0,-1.584l-3.346,0l0,16.553l3.346,0l0,-5.89c0.922,1.026 2.111,1.539 3.569,1.539" fill-rule="nonzero" fill="#000333"/>
   </g>
   <path stroke="null" id="path40" d="m384.918385,125.754858l-10.385148,0l0,-37.248112l10.385148,0l0,37.248112zm-9.519203,-41.990641c-1.176326,-1.176326 -1.766035,-2.619561 -1.766035,-4.329736c0,-1.703961 0.589709,-3.147206 1.766035,-4.326623c1.173213,-1.176326 2.616459,-1.762933 4.326623,-1.762933c1.707063,0 3.150308,0.586607 4.326623,1.762933c1.176326,1.179428 1.766035,2.622674 1.766035,4.326623c0,1.710165 -0.589709,3.15341 -1.766035,4.329736c-1.176326,1.176326 -2.619561,1.766035 -4.326623,1.766035c-1.710165,0 -3.15341,-0.589709 -4.326623,-1.766035" fill-rule="nonzero" fill="#000333"/>
   <path stroke="null" id="path42" d="m405.136218,125.754858l-10.385148,0l0,-51.373277l10.385148,0l0,51.373277z" fill-rule="nonzero" fill="#000333"/>
   <g stroke="null" id="g44" transform="matrix(3.1037502995592767,0,0,-3.1037502995592767,-330.8629111874361,-206.76796483948488) ">
    <path stroke="null" id="path46" d="m247.482298,-98.28011c-0.461,0.387 -1.023,0.58 -1.685,0.58c-0.661,0 -1.267,-0.201 -1.817,-0.602c-0.551,-0.402 -0.87,-0.945 -0.96,-1.629l5.265,0c-0.074,0.714 -0.342,1.264 -0.803,1.651m3.212,-7.116c-1.354,-1.279 -2.942,-1.918 -4.763,-1.918c-1.821,0 -3.327,0.561 -4.516,1.684c-1.191,1.122 -1.786,2.628 -1.786,4.517c0,1.889 0.607,3.39099 1.819,4.506c1.212,1.116 2.643,1.673 4.294,1.673c1.651,0 3.051,-0.498 4.205,-1.494c1.152,-0.99701 1.728,-2.365 1.728,-4.105l0,-1.785l-8.744,0c0.104,-0.654 0.446,-1.19 1.027,-1.606c0.58,-0.416 1.234,-0.624 1.962,-0.624c1.175,0 2.142,0.393 2.901,1.182l1.873,-2.03z" fill-rule="nonzero" fill="#000333"/>
   </g>
   <g stroke="null" id="g48" transform="matrix(3.1037502995592767,0,0,-3.1037502995592767,-330.8629111874361,-206.76796483948488) ">
    <path stroke="null" id="path50" d="m261.939298,-100.33241l6.804,0c0,0.996 -0.312,1.762 -0.937,2.298c-0.625,0.535 -1.394,0.803 -2.308,0.803c-0.915,0 -1.737,-0.279 -2.465,-0.837c-0.73,-0.557 -1.094,-1.312 -1.094,-2.264m9.303,-1.963l-9.303,0c0.06,-0.863 0.454,-1.558 1.183,-2.08601c0.728,-0.52799 1.561,-0.792 2.498,-0.792c1.487,0 2.617,0.469 3.39,1.40601l1.428,-1.56201c-1.279,-1.324 -2.944,-1.985 -4.996,-1.985c-1.666,0 -3.083,0.554 -4.25,1.662c-1.168,1.108 -1.751,2.595 -1.751,4.461c0,1.86601 0.595,3.35 1.784,4.45c1.19,1.101 2.592,1.651 4.205,1.651c1.613,0 2.986,-0.487 4.116,-1.461c1.13,-0.974 1.696,-2.316 1.696,-4.026l0,-1.718l0,0.00001z" fill-rule="nonzero" fill="#000333"/>
   </g>
   <g stroke="null" id="g52" transform="matrix(3.1037502995592767,0,0,-3.1037502995592767,-330.8629111874361,-206.76796483948488) ">
    <path stroke="null" id="path54" d="m280.209788,-97.61071c-1.235,0 -2.164,-0.402 -2.789,-1.20501c-0.624,-0.803 -0.936,-1.881 -0.936,-3.234l0,-5.086l-2.499,0l0,11.867l2.499,0l0,-2.387c0.401,0.744 0.948,1.353 1.639,1.83c0.691,0.475 1.424,0.721 2.197,0.736l0.023,-2.521l-0.134,0l0,0.00001z" fill-rule="nonzero" fill="#000333"/>
   </g>
   <g stroke="null" id="g56" transform="matrix(3.1037502995592767,0,0,-3.1037502995592767,-330.8629111874361,-206.76796483948488) ">
    <path stroke="null" id="path58" d="m289.867988,-102.71911l0,1.004l-2.812,0c-1.798,0 -2.698,-0.566 -2.698,-1.696c0,-0.57901 0.224,-1.022 0.669,-1.327c0.445,-0.305 1.068,-0.457 1.862,-0.457c0.796,0 1.492,0.223 2.087,0.669c0.595,0.446 0.892,1.048 0.892,1.807m2.499,-4.417l-2.275,0l0,1.584c-0.982,-1.175 -2.298,-1.762 -3.949,-1.762c-1.235,0 -2.256,0.349 -3.067,1.048c-0.812,0.699 -1.216,1.632 -1.216,2.799c0,1.168 0.431,2.042 1.294,2.622c0.862,0.58 2.028,0.87 3.502,0.87l3.233,0l0,0.446c0,1.576 -0.876,2.364 -2.63,2.364c-1.101,0 -2.246,-0.401 -3.436,-1.204l-1.115,1.561c1.442,1.145 3.078,1.718 4.907,1.718c1.398,0 2.539,-0.35401 3.425,-1.06c0.884,-0.706 1.327,-1.81801 1.327,-3.33501l0,-7.651l0,0.00001z" fill-rule="nonzero" fill="#000333"/>
   </g>
  </g>
 </g>
</svg>