<?xml version="1.0" encoding="utf-8"?>
<!-- Generator: Adobe Illustrator 21.1.0, SVG Export Plug-In . SVG Version: 6.00 Build 0)  -->
<svg version="1.1" id="Layer_1" xmlns="http://www.w3.org/2000/svg" xmlns:xlink="http://www.w3.org/1999/xlink" x="0px" y="0px"
	 viewBox="0 0 400 400" style="enable-background:new 0 0 400 400;" xml:space="preserve">
<style type="text/css">
	.st0{fill:#00A9C5;}
</style>
<g>
	<title>Layer 1</title>
	<g id="g92" transform="matrix(9.060914130980397,0,0,-9.060914130980397,-116.16176489439204,512.0553938470669) ">
		<path id="path94" class="st0" d="M49.7,49.3c0-2.5-2-4.5-4.5-4.5c-2.5,0-4.5,2-4.5,4.5s2,4.5,4.5,4.5
			C47.7,53.7,49.7,51.7,49.7,49.3"/>
	</g>
	<g id="g96" transform="matrix(9.060914130980397,0,0,-9.060914130980397,-116.16176489439204,512.0553938470669) ">
		<path id="path98" class="st0" d="M28.8,44c0-1.5-1.3-2.8-2.8-2.8c-1.5,0-2.8,1.3-2.8,2.8c0,1.5,1.3,2.8,2.8,2.8
			C27.6,46.8,28.8,45.5,28.8,44"/>
	</g>
	<g id="g100" transform="matrix(9.060914130980397,0,0,-9.060914130980397,-116.16176489439204,512.0553938470669) ">
		<path id="path102" class="st0" d="M43.2,18.8c0-2-1.6-3.6-3.6-3.6S36,16.8,36,18.8s1.6,3.6,3.6,3.6S43.2,20.7,43.2,18.8"/>
	</g>
	<g id="g104" transform="matrix(9.060914130980397,0,0,-9.060914130980397,-116.16176489439204,512.0553938470669) ">
		<path id="path106" class="st0" d="M49.5,33.9c-1.2,1-1.4,2.7-0.4,3.9c1,1.2,2.7,1.4,3.9,0.4c1.2-1,1.4-2.7,0.4-3.9
			C52.5,33.1,50.7,33,49.5,33.9"/>
	</g>
	<g id="g108" transform="matrix(9.060914130980397,0,0,-9.060914130980397,-116.16176489439204,512.0553938470669) ">
		<path id="path110" class="st0" d="M24.2,30.8c0-2.4-2-4.4-4.4-4.4c-2.4,0-4.4,2-4.4,4.4c0,2.4,2,4.4,4.4,4.4
			C22.2,35.2,24.2,33.2,24.2,30.8"/>
	</g>
	<g id="g24" transform="matrix(9.060914130980397,0,0,-9.060914130980397,-116.16176489439204,512.0553938470669) ">
		<path id="svg_2" class="st0" d="M43.1,34.4c0-3.9-3.1-7-7-7c-3.9,0-7,3.1-7,7c0,3.9,3.1,7,7,7C40,41.4,43.1,38.2,43.1,34.4"/>
	</g>
</g>
</svg>
