<?xml version="1.0" encoding="utf-8"?>
<!-- Generator: Adobe Illustrator 21.1.0, SVG Export Plug-In . SVG Version: 6.00 Build 0)  -->
<svg version="1.1" id="Layer_1" xmlns="http://www.w3.org/2000/svg" xmlns:xlink="http://www.w3.org/1999/xlink" x="0px" y="0px"
	 viewBox="0 0 419.5 297.6" style="enable-background:new 0 0 419.5 297.6;" xml:space="preserve">
<style type="text/css">
	.st0{display:none;fill:#283B87;}
	.st1{fill:#FFFFFF;}
	.st2{fill:#CAB82E;}
	.st3{fill:#0E1131;}
	.st4{fill:#00AAC6;}
</style>
<rect x="5" y="11.9" class="st0" width="404.7" height="231.9"/>
<path class="st1" d="M264.3,106H132.8v19.9c0,1.7,1.3,3,3,3h125.5c1.7,0,3-1.3,3-3"/>
<path class="st1" d="M266.3,90.7h-2V85c0-1.7-1.3-3-3-3H135.8c-1.7,0-3,1.3-3,3v21.9c0,1.7,1.3,3,3,3h125.5c1.7,0,3-1.3,3-3v-5.7h2
	c1.7,0,3-1.3,3-3v-4.4C269.3,92.1,267.9,90.7,266.3,90.7z M143.9,105.7h-7.1V86.1h7.1V105.7z M152.8,105.7h-7.1V86.1h7.1V105.7z
	 M161.8,105.7h-7.1V86.1h7.1V105.7z M170.7,105.7h-7.1V86.1h7.1V105.7z M179.6,105.7h-7.1V86.1h7.1V105.7z M188.5,105.7h-7.1V86.1
	h7.1V105.7z M197.5,105.7h-7.1V86.1h7.1V105.7z M206.4,105.7h-7.1V86.1h7.1V105.7z M215.3,105.7h-7.1V86.1h7.1V105.7z M224.2,105.7
	h-7.1V86.1h7.1V105.7z M233.1,105.7H226V86.1h7.1V105.7z M242.1,105.7H235V86.1h7.1V105.7z M251,105.7h-7.1V86.1h7.1V105.7z
	 M259.9,105.7h-7.1V86.1h7.1V105.7z M267.3,98.2c0,0.6-0.4,1-1,1h-2v-6.4h2c0.6,0,1,0.4,1,1V98.2z"/>
<path class="st2" d="M264.3,106.9v-5.7h2c1.7,0,3-1.3,3-3v-4.4c0-1.7-1.3-3-3-3h-2V85c0-1.7-1.3-3-3-3H135.8c-1.7,0-3,1.3-3,3v21.9
	c0,1.7,1.3,3,3,3h125.5C262.9,109.9,264.3,108.6,264.3,106.9z M135.8,107.9c-0.6,0-1-0.4-1-1V85c0-0.6,0.4-1,1-1h125.5
	c0.6,0,1,0.4,1,1v21.9c0,0.6-0.4,1-1,1H135.8z"/>
<g>
	<g>
		<path class="st3" d="M222.7,119.8v2.3h-1.2v-2.3c0-0.3-0.1-0.6-0.2-0.7c-0.1-0.2-0.3-0.2-0.5-0.2c-0.2,0-0.4,0.1-0.6,0.3
			c-0.2,0.2-0.3,0.4-0.3,0.8v2.3h-1.2v-4.3h1.2v0.5c0.3-0.4,0.7-0.6,1.1-0.6c0.3,0,0.5,0.1,0.7,0.2c0.2,0.2,0.4,0.4,0.5,0.6
			c0.2-0.3,0.4-0.5,0.7-0.6c0.3-0.1,0.6-0.2,0.8-0.2c0.5,0,0.9,0.1,1.2,0.4c0.3,0.3,0.5,0.7,0.5,1.3v2.6h-1.2v-2.3
			c0-0.7-0.2-1-0.7-1c-0.2,0-0.4,0.1-0.6,0.3C222.8,119.2,222.7,119.5,222.7,119.8"/>
		<path class="st3" d="M230.8,120c0,0.6-0.2,1.1-0.6,1.6c-0.4,0.4-1,0.6-1.6,0.6c-0.6,0-1.2-0.2-1.6-0.6c-0.4-0.4-0.6-0.9-0.6-1.6
			s0.2-1.1,0.6-1.6c0.4-0.4,1-0.6,1.6-0.6c0.6,0,1.2,0.2,1.6,0.6C230.6,118.8,230.8,119.4,230.8,120 M227.5,120
			c0,0.3,0.1,0.6,0.3,0.8c0.2,0.2,0.5,0.3,0.8,0.3c0.3,0,0.6-0.1,0.8-0.3c0.2-0.2,0.3-0.5,0.3-0.8c0-0.3-0.1-0.6-0.3-0.9
			c-0.2-0.2-0.5-0.3-0.8-0.3c-0.3,0-0.6,0.1-0.8,0.3C227.6,119.4,227.5,119.6,227.5,120"/>
		<path class="st3" d="M234.1,117.8c0.5,0,1,0.2,1.4,0.6c0.4,0.4,0.6,0.9,0.6,1.6c0,0.6-0.2,1.2-0.6,1.6c-0.4,0.4-0.8,0.6-1.3,0.6
			c-0.5,0-0.9-0.2-1.3-0.6v0.6h-1.2v-5.9h1.2v2.1C233.2,118,233.6,117.8,234.1,117.8 M232.8,120c0,0.3,0.1,0.6,0.3,0.8
			c0.2,0.2,0.4,0.3,0.7,0.3c0.3,0,0.5-0.1,0.7-0.3c0.2-0.2,0.3-0.5,0.3-0.8c0-0.3-0.1-0.6-0.3-0.9c-0.2-0.2-0.4-0.3-0.7-0.3
			c-0.3,0-0.5,0.1-0.7,0.3C232.9,119.4,232.8,119.6,232.8,120"/>
		<path class="st3" d="M237,117.3c-0.1-0.1-0.2-0.3-0.2-0.5c0-0.2,0.1-0.4,0.2-0.5c0.1-0.1,0.3-0.2,0.5-0.2c0.2,0,0.4,0.1,0.5,0.2
			c0.1,0.1,0.2,0.3,0.2,0.5c0,0.2-0.1,0.4-0.2,0.5c-0.1,0.1-0.3,0.2-0.5,0.2C237.3,117.5,237.2,117.5,237,117.3 M238.1,122.1h-1.2
			v-4.3h1.2V122.1z"/>
		<rect x="239.2" y="116.2" class="st3" width="1.2" height="5.9"/>
		<path class="st3" d="M245.2,121.5c-0.5,0.5-1,0.7-1.7,0.7c-0.6,0-1.2-0.2-1.6-0.6c-0.4-0.4-0.6-0.9-0.6-1.6s0.2-1.2,0.6-1.6
			c0.4-0.4,0.9-0.6,1.5-0.6s1.1,0.2,1.5,0.5c0.4,0.4,0.6,0.8,0.6,1.5v0.6h-3.1c0,0.2,0.2,0.4,0.4,0.6s0.4,0.2,0.7,0.2
			c0.4,0,0.8-0.1,1-0.4L245.2,121.5z M244.1,119c-0.2-0.1-0.4-0.2-0.6-0.2c-0.2,0-0.4,0.1-0.6,0.2c-0.2,0.1-0.3,0.3-0.3,0.6h1.9
			C244.4,119.3,244.3,119.1,244.1,119"/>
		<path class="st3" d="M252.5,120.4h-3.3c0,0.3,0.2,0.6,0.4,0.7c0.3,0.2,0.6,0.3,0.9,0.3c0.5,0,0.9-0.2,1.2-0.5l0.5,0.6
			c-0.5,0.5-1,0.7-1.8,0.7c-0.6,0-1.1-0.2-1.5-0.6c-0.4-0.4-0.6-0.9-0.6-1.6c0-0.7,0.2-1.2,0.6-1.6c0.4-0.4,0.9-0.6,1.5-0.6
			s1.1,0.2,1.5,0.5c0.4,0.3,0.6,0.8,0.6,1.4V120.4z M249.2,119.7h2.4c0-0.4-0.1-0.6-0.3-0.8c-0.2-0.2-0.5-0.3-0.8-0.3
			c-0.3,0-0.6,0.1-0.9,0.3C249.3,119.1,249.2,119.4,249.2,119.7"/>
		<path class="st3" d="M255.7,118.7c-0.4,0-0.8,0.1-1,0.4c-0.2,0.3-0.3,0.7-0.3,1.1v1.8h-0.9v-4.2h0.9v0.8c0.1-0.3,0.3-0.5,0.6-0.6
			c0.2-0.2,0.5-0.3,0.8-0.3L255.7,118.7L255.7,118.7z"/>
		<path class="st3" d="M260,122.1h-0.8v-0.6c-0.3,0.4-0.8,0.6-1.4,0.6c-0.4,0-0.8-0.1-1.1-0.4c-0.3-0.2-0.4-0.6-0.4-1
			c0-0.4,0.2-0.7,0.5-0.9c0.3-0.2,0.7-0.3,1.2-0.3h1.1v-0.2c0-0.6-0.3-0.8-0.9-0.8c-0.4,0-0.8,0.1-1.2,0.4l-0.4-0.6
			c0.5-0.4,1.1-0.6,1.7-0.6c0.5,0,0.9,0.1,1.2,0.4c0.3,0.3,0.5,0.6,0.5,1.2V122.1z M259.1,120.5v-0.4h-1c-0.6,0-1,0.2-1,0.6
			c0,0.2,0.1,0.4,0.2,0.5c0.2,0.1,0.4,0.2,0.7,0.2c0.3,0,0.5-0.1,0.7-0.2C259,121,259.1,120.8,259.1,120.5"/>
	</g>
	<g>
		<path class="st4" d="M213,114.5c0,0.9-0.7,1.6-1.6,1.6c-0.9,0-1.6-0.7-1.6-1.6c0-0.9,0.7-1.6,1.6-1.6
			C212.3,112.9,213,113.7,213,114.5"/>
		<path class="st4" d="M205.6,116.4c0,0.5-0.4,1-1,1c-0.5,0-1-0.4-1-1c0-0.5,0.4-1,1-1C205.1,115.4,205.6,115.8,205.6,116.4"/>
		<path class="st4" d="M210.7,125.3c0,0.7-0.6,1.3-1.3,1.3c-0.7,0-1.3-0.6-1.3-1.3c0-0.7,0.6-1.3,1.3-1.3
			C210.1,124.1,210.7,124.6,210.7,125.3"/>
		<path class="st4" d="M212.9,120c-0.4-0.3-0.5-1-0.1-1.4c0.3-0.4,1-0.5,1.4-0.1c0.4,0.3,0.5,1,0.1,1.4
			C214,120.2,213.3,120.3,212.9,120"/>
		<path class="st4" d="M203.9,121.1c0,0.9-0.7,1.6-1.6,1.6c-0.9,0-1.6-0.7-1.6-1.6c0-0.9,0.7-1.6,1.6-1.6
			C203.2,119.5,203.9,120.2,203.9,121.1"/>
		<path class="st4" d="M210.6,119.8c0,1.4-1.1,2.5-2.5,2.5c-1.4,0-2.5-1.1-2.5-2.5c0-1.4,1.1-2.5,2.5-2.5
			C209.5,117.3,210.6,118.4,210.6,119.8"/>
	</g>
</g>
<g>
	<path class="st3" d="M137,121.3c0.2,0.1,0.6,0.3,1,0.3c0.6,0,0.8-0.3,0.8-0.6c0-0.4-0.2-0.6-0.8-0.8c-0.7-0.3-1.1-0.7-1.1-1.2
		c0-0.7,0.5-1.2,1.4-1.2c0.4,0,0.8,0.1,1,0.3l-0.2,0.6c-0.2-0.1-0.5-0.2-0.9-0.2c-0.4,0-0.7,0.3-0.7,0.6c0,0.3,0.2,0.5,0.8,0.7
		c0.7,0.3,1.1,0.6,1.1,1.3c0,0.7-0.6,1.2-1.6,1.2c-0.5,0-0.9-0.1-1.2-0.3L137,121.3z"/>
	<path class="st3" d="M144,120.9c0,0.4,0,0.8,0,1.1h-0.7l0-0.7h0c-0.2,0.3-0.6,0.8-1.4,0.8c-0.7,0-1.4-0.4-1.4-1.8v-2.4h0.8v2.3
		c0,0.8,0.2,1.3,0.9,1.3c0.5,0,0.9-0.4,1-0.7c0-0.1,0.1-0.2,0.1-0.4v-2.6h0.8V120.9z"/>
	<path class="st3" d="M145.2,119.2c0-0.5,0-1,0-1.4h0.7l0,0.7h0c0.3-0.5,0.8-0.8,1.5-0.8c1,0,1.8,0.9,1.8,2.1c0,1.5-0.9,2.2-1.9,2.2
		c-0.6,0-1-0.2-1.3-0.7h0v2.3h-0.7V119.2z M146,120.4c0,0.1,0,0.2,0,0.3c0.1,0.5,0.6,0.9,1.1,0.9c0.8,0,1.3-0.7,1.3-1.6
		c0-0.8-0.4-1.6-1.2-1.6c-0.5,0-1,0.4-1.1,0.9c0,0.1-0.1,0.2-0.1,0.3V120.4z"/>
	<path class="st3" d="M150.6,120.1c0,1,0.7,1.4,1.4,1.4c0.5,0,0.9-0.1,1.2-0.2l0.1,0.5c-0.3,0.1-0.7,0.3-1.4,0.3
		c-1.3,0-2.1-0.8-2.1-2.1s0.7-2.2,2-2.2c1.4,0,1.7,1.2,1.7,2c0,0.2,0,0.3,0,0.4H150.6z M152.8,119.6c0-0.5-0.2-1.2-1.1-1.2
		c-0.8,0-1.1,0.7-1.2,1.2H152.8z"/>
	<path class="st3" d="M154.5,119.2c0-0.5,0-0.9,0-1.3h0.7l0,0.8h0c0.2-0.6,0.6-0.9,1.2-0.9c0.1,0,0.1,0,0.2,0v0.7
		c-0.1,0-0.2,0-0.3,0c-0.5,0-0.9,0.4-1,1c0,0.1,0,0.2,0,0.4v2.2h-0.7V119.2z"/>
	<path class="st3" d="M160.2,121.9c-0.2,0.1-0.6,0.2-1.2,0.2c-1.3,0-2.1-0.9-2.1-2.1c0-1.3,0.9-2.2,2.2-2.2c0.4,0,0.8,0.1,1.1,0.2
		l-0.2,0.6c-0.2-0.1-0.5-0.2-0.9-0.2c-1,0-1.5,0.7-1.5,1.6c0,1,0.6,1.6,1.4,1.6c0.4,0,0.7-0.1,0.9-0.2L160.2,121.9z"/>
	<path class="st3" d="M161.1,115.9h0.8v2.6h0c0.1-0.2,0.3-0.4,0.5-0.5c0.2-0.1,0.5-0.2,0.8-0.2c0.6,0,1.5,0.3,1.5,1.8v2.5h-0.8v-2.4
		c0-0.7-0.2-1.2-1-1.2c-0.5,0-0.9,0.3-1,0.8c0,0.1-0.1,0.2-0.1,0.4v2.5h-0.8V115.9z"/>
	<path class="st3" d="M168.2,122l-0.1-0.5h0c-0.2,0.3-0.7,0.6-1.3,0.6c-0.8,0-1.3-0.6-1.3-1.2c0-1,0.9-1.6,2.5-1.6v-0.1
		c0-0.3-0.1-1-0.9-1c-0.4,0-0.8,0.1-1.1,0.3l-0.2-0.5c0.3-0.2,0.8-0.4,1.4-0.4c1.3,0,1.6,0.9,1.6,1.7v1.6c0,0.4,0,0.7,0.1,1H168.2z
		 M168,119.9c-0.8,0-1.8,0.1-1.8,0.9c0,0.5,0.3,0.7,0.7,0.7c0.5,0,0.9-0.3,1-0.7c0-0.1,0-0.2,0-0.2V119.9z"/>
	<path class="st3" d="M170,119.2c0-0.5,0-0.9,0-1.3h0.7l0,0.8h0c0.2-0.6,0.6-0.9,1.2-0.9c0.1,0,0.1,0,0.2,0v0.7c-0.1,0-0.2,0-0.3,0
		c-0.5,0-0.9,0.4-1,1c0,0.1,0,0.2,0,0.4v2.2H170V119.2z"/>
	<path class="st3" d="M176.4,117.9c0,0.3,0,0.6,0,1.1v2.4c0,1-0.2,1.5-0.6,1.9c-0.4,0.4-1,0.5-1.5,0.5c-0.5,0-1.1-0.1-1.4-0.3
		l0.2-0.6c0.3,0.2,0.7,0.3,1.2,0.3c0.8,0,1.3-0.4,1.3-1.5v-0.5h0c-0.2,0.4-0.7,0.7-1.3,0.7c-1,0-1.8-0.9-1.8-2
		c0-1.4,0.9-2.2,1.9-2.2c0.7,0,1.1,0.4,1.3,0.7h0l0-0.6H176.4z M175.6,119.5c0-0.1,0-0.2,0-0.3c-0.1-0.4-0.5-0.8-1.1-0.8
		c-0.7,0-1.2,0.6-1.2,1.6c0,0.8,0.4,1.5,1.2,1.5c0.5,0,0.9-0.3,1.1-0.8c0-0.1,0.1-0.3,0.1-0.4V119.5z"/>
	<path class="st3" d="M178,120.1c0,1,0.7,1.4,1.4,1.4c0.5,0,0.9-0.1,1.2-0.2l0.1,0.5c-0.3,0.1-0.7,0.3-1.4,0.3
		c-1.3,0-2.1-0.8-2.1-2.1s0.7-2.2,2-2.2c1.4,0,1.7,1.2,1.7,2c0,0.2,0,0.3,0,0.4H178z M180.2,119.6c0-0.5-0.2-1.2-1.1-1.2
		c-0.8,0-1.1,0.7-1.2,1.2H180.2z"/>
	<path class="st3" d="M185.5,115.9v5c0,0.4,0,0.8,0,1.1h-0.7l0-0.7h0c-0.2,0.5-0.7,0.8-1.4,0.8c-1,0-1.8-0.9-1.8-2.1
		c0-1.4,0.9-2.2,1.9-2.2c0.6,0,1.1,0.3,1.3,0.6h0v-2.5H185.5z M184.7,119.6c0-0.1,0-0.2,0-0.3c-0.1-0.5-0.5-0.9-1.1-0.9
		c-0.8,0-1.2,0.7-1.2,1.6c0,0.8,0.4,1.5,1.2,1.5c0.5,0,1-0.3,1.1-0.9c0-0.1,0-0.2,0-0.3V119.6z"/>
	<path class="st3" d="M188.6,122c0-0.3,0-0.7,0-1.1v-5h0.7v2.6h0c0.3-0.5,0.7-0.8,1.4-0.8c1,0,1.8,0.9,1.8,2.1
		c0,1.5-0.9,2.2-1.9,2.2c-0.6,0-1.1-0.2-1.4-0.8h0l0,0.7H188.6z M189.3,120.4c0,0.1,0,0.2,0,0.3c0.1,0.5,0.6,0.9,1.1,0.9
		c0.8,0,1.3-0.6,1.3-1.6c0-0.8-0.4-1.6-1.2-1.6c-0.5,0-1,0.4-1.2,0.9c0,0.1,0,0.2,0,0.3V120.4z"/>
	<path class="st3" d="M193.7,117.9l0.9,2.5c0.1,0.3,0.2,0.6,0.3,0.9h0c0.1-0.2,0.2-0.6,0.3-0.9l0.8-2.4h0.8l-1.1,3
		c-0.5,1.4-0.9,2.2-1.4,2.6c-0.4,0.3-0.7,0.5-0.9,0.5l-0.2-0.6c0.2-0.1,0.4-0.2,0.7-0.4c0.2-0.2,0.5-0.5,0.6-0.8
		c0-0.1,0.1-0.1,0.1-0.2c0,0,0-0.1-0.1-0.2l-1.5-3.8H193.7z"/>
</g>
<path class="st1" d="M266.3,92.7c0.6,0,1,0.4,1,1v4.4c0,0.6-0.4,1-1,1h-2v-6.4H266.3z"/>
</svg>
